<svg width="270" height="91" fill="none" xmlns="http://www.w3.org/2000/svg"><path d="M13.318 36.059l40.729-18.134" stroke="#82C2EB" stroke-width="1.467" stroke-miterlimit="10"/><path d="M93.522 39.915h-4.25v-5.939h-4.418v5.939h-4.25v-15.01h4.25v5.587h4.419v-5.588h4.249v15.01zm1.338-7.394c0-1.328.202-2.496.617-3.495.414-.998.945-1.827 1.614-2.496a6.682 6.682 0 012.295-1.509 7.247 7.247 0 012.666-.51c2.135 0 3.814.649 5.057 1.955 1.232 1.307 1.859 3.219 1.859 5.747 0 .244-.011.52-.032.818-.022.297-.043.552-.053.786h-9.646c.096.871.5 1.572 1.232 2.082.723.51 1.689.776 2.911.776.775 0 1.551-.075 2.294-.213.755-.138 1.36-.319 1.838-.531l.574 3.452c-.223.117-.531.224-.914.34a11.31 11.31 0 01-1.274.298c-.468.085-.967.16-1.498.212-.531.053-1.062.085-1.594.085-1.349 0-2.528-.201-3.526-.595-1-.403-1.828-.945-2.486-1.636-.659-.69-1.137-1.519-1.456-2.464a9.878 9.878 0 01-.478-3.102zm9.997-1.625a5.038 5.038 0 00-.181-1.052 2.615 2.615 0 00-.489-.914 2.677 2.677 0 00-.828-.658c-.33-.17-.744-.255-1.243-.255-.478 0-.882.085-1.232.244-.34.16-.627.372-.861.638a3.05 3.05 0 00-.531.924c-.128.35-.212.712-.276 1.073h5.641zm19.11-5.992v15.01h-4.281c0-.956.011-1.9.032-2.836.021-.945.042-1.816.053-2.613.021-.797.043-1.498.074-2.093.032-.595.043-1.04.043-1.328-.552.776-1.105 1.573-1.657 2.37a81.435 81.435 0 00-1.583 2.358c-.499.775-.977 1.508-1.424 2.21a65.225 65.225 0 00-1.189 1.943h-3.74v-15.01h4.25c0 .956 0 1.86-.011 2.73-.011.86-.021 1.647-.042 2.358-.022.712-.043 1.318-.054 1.838-.021.52-.032.924-.032 1.211a164.72 164.72 0 013.155-4.504 60.443 60.443 0 012.816-3.622h3.59v-.022zm-6.788-2.06a5.71 5.71 0 01-1.753-.277 4.986 4.986 0 01-1.529-.796 4.36 4.36 0 01-1.126-1.286c-.298-.499-.468-1.083-.532-1.72l2.943-.776c.149.722.404 1.232.754 1.54.351.308.765.457 1.243.457.499 0 .914-.138 1.275-.414.35-.276.605-.797.754-1.551l2.911.765a4.043 4.043 0 01-.531 1.731c-.298.5-.67.924-1.116 1.275a4.97 4.97 0 01-1.53.786 5.765 5.765 0 01-1.763.266zm22.797 9.56c0 1.158-.138 2.22-.425 3.166-.287.956-.701 1.774-1.254 2.454a5.604 5.604 0 01-2.05 1.593c-.818.383-1.763.574-2.825.574a7.426 7.426 0 01-1.658-.17 8.12 8.12 0 01-1.487-.489v5.652h-4.249v-19.78c.382-.117.818-.223 1.317-.33a27.332 27.332 0 013.208-.446 21.498 21.498 0 011.615-.074c1.232 0 2.337.18 3.314.552.967.372 1.785.893 2.454 1.572.67.68 1.179 1.498 1.53 2.465.34.977.51 2.06.51 3.261zm-4.334.117c0-1.317-.298-2.358-.882-3.155-.595-.786-1.466-1.19-2.624-1.19-.382 0-.733.01-1.051.043a18.22 18.22 0 00-.797.095v7.68c.265.17.616.32 1.041.426.425.117.86.17 1.296.17 2.008.01 3.017-1.35 3.017-4.069zm19.716-.149c0 1.18-.17 2.263-.51 3.24-.34.978-.839 1.817-1.487 2.507a6.784 6.784 0 01-2.327 1.615c-.903.383-1.912.574-3.038.574-1.105 0-2.103-.191-3.006-.574a6.643 6.643 0 01-2.327-1.615c-.648-.69-1.147-1.53-1.508-2.507-.361-.977-.542-2.06-.542-3.24 0-1.179.181-2.252.553-3.23.371-.966.881-1.794 1.54-2.485a6.877 6.877 0 012.337-1.593c.903-.383 1.891-.574 2.953-.574 1.084 0 2.082.191 2.985.574a6.88 6.88 0 012.327 1.593c.648.68 1.147 1.509 1.508 2.486.361.977.542 2.05.542 3.23zm-4.334 0c0-1.317-.266-2.347-.786-3.091-.521-.754-1.275-1.126-2.242-1.126-.967 0-1.721.372-2.252 1.126-.531.754-.797 1.785-.797 3.091 0 1.307.266 2.359.797 3.124.531.764 1.285 1.157 2.252 1.157.967 0 1.721-.382 2.242-1.157.52-.765.786-1.806.786-3.124zm-61.56 18.081v11.525h-4.25V50.453h-4.79v-3.485h13.841v3.485h-4.801zm19.365 4.015c0 1.158-.138 2.22-.424 3.166-.287.956-.702 1.774-1.254 2.453a5.605 5.605 0 01-2.05 1.594c-.818.382-1.763.574-2.826.574a7.422 7.422 0 01-1.657-.17 8.13 8.13 0 01-1.487-.489v5.651h-4.25v-19.78c.383-.116.819-.223 1.318-.329.5-.106 1.01-.191 1.55-.276a27.221 27.221 0 011.658-.18 21.498 21.498 0 011.615-.075c1.232 0 2.337.18 3.314.553.967.371 1.785.892 2.454 1.572a6.73 6.73 0 011.53 2.464c.34.988.509 2.082.509 3.272zm-4.334.117c0-1.317-.297-2.358-.881-3.155-.585-.786-1.466-1.18-2.624-1.18-.383 0-.733.011-1.052.043-.319.032-.595.064-.797.096v7.68c.266.17.616.319 1.041.425.425.117.861.17 1.297.17 2.007 0 3.016-1.36 3.016-4.08zm4.961 0c0-1.328.202-2.496.616-3.495.415-.999.946-1.827 1.615-2.497a6.678 6.678 0 012.295-1.508 7.246 7.246 0 012.666-.51c2.135 0 3.814.648 5.056 1.955 1.233 1.306 1.859 3.218 1.859 5.747 0 .244-.01.52-.031.818-.022.297-.043.552-.053.786h-9.646c.095.87.499 1.572 1.232 2.082.722.51 1.689.776 2.911.776.775 0 1.551-.075 2.294-.213.755-.138 1.36-.319 1.838-.531l.574 3.452c-.223.117-.531.223-.914.34a11.28 11.28 0 01-1.275.298c-.467.085-.966.159-1.497.212-.531.053-1.063.085-1.594.085-1.349 0-2.528-.202-3.527-.595-.998-.403-1.827-.945-2.485-1.636-.659-.69-1.137-1.519-1.456-2.464a9.85 9.85 0 01-.478-3.102zm9.986-1.626a4.974 4.974 0 00-.181-1.051 2.6 2.6 0 00-.489-.914 2.677 2.677 0 00-.828-.658c-.329-.17-.744-.255-1.243-.255-.478 0-.882.085-1.232.244a2.62 2.62 0 00-.861.637 3.06 3.06 0 00-.531.925c-.127.35-.212.711-.276 1.072h5.641zm18.377 9.019h-4.249V56.04h-4.419v5.938h-4.249v-15.01h4.249v5.598h4.419v-5.598h4.249v15.01zm7.447-15.413c1.254 0 2.305.138 3.134.425.839.286 1.508.69 2.008 1.232a4.57 4.57 0 011.072 1.944c.213.765.319 1.604.319 2.539v8.848c-.605.139-1.455.287-2.539.468-1.083.18-2.401.276-3.941.276-.967 0-1.848-.085-2.634-.255a5.895 5.895 0 01-2.04-.84 3.91 3.91 0 01-1.317-1.529c-.308-.627-.457-1.402-.457-2.316 0-.87.181-1.614.531-2.23a4.038 4.038 0 011.413-1.456 6.367 6.367 0 012.029-.786c.765-.16 1.551-.244 2.369-.244.552 0 1.041.021 1.466.074.425.043.775.106 1.041.18v-.403c0-.722-.223-1.306-.659-1.742-.435-.435-1.2-.659-2.284-.659-.722 0-1.434.053-2.135.16-.701.106-1.317.255-1.827.446l-.542-3.42c.245-.075.553-.16.924-.245.372-.085.776-.16 1.211-.223a24.84 24.84 0 011.381-.17c.5-.043.988-.075 1.477-.075zm.351 12.439c.414 0 .818-.01 1.2-.032a7.57 7.57 0 00.914-.085v-3.23a7.402 7.402 0 00-.776-.116 7.572 7.572 0 00-.945-.053 7.51 7.51 0 00-1.126.074 2.95 2.95 0 00-.925.266 1.647 1.647 0 00-.626.541c-.149.224-.223.51-.223.861 0 .67.223 1.126.669 1.381.446.266 1.052.393 1.838.393zm6.384 2.974a48.756 48.756 0 012.943-4.26 56.473 56.473 0 013.229-3.77 58.033 58.033 0 01-3.272-3.633 71.194 71.194 0 01-2.613-3.347h4.971a67.307 67.307 0 001.785 2.422c.69.914 1.604 2.072 2.719 3.474v-5.896h4.143v5.917a74.588 74.588 0 002.773-3.484c.68-.935 1.275-1.753 1.774-2.433h4.908a36.477 36.477 0 01-2.475 3.346c-.946 1.148-2.061 2.348-3.325 3.602.68.722 1.296 1.402 1.837 2.04a57.87 57.87 0 011.541 1.9c.488.627.945 1.286 1.381 1.955.435.68.892 1.392 1.37 2.157h-4.727a91.338 91.338 0 00-5.025-6.81v6.81h-4.143V55.2a307.427 307.427 0 01-2.772 3.633 51.442 51.442 0 00-2.252 3.123h-4.77v.021z" fill="#fff"/><path d="M174.893 54.585c0-1.328.202-2.496.616-3.495.415-.999.946-1.827 1.615-2.497a6.678 6.678 0 012.295-1.508 7.246 7.246 0 012.666-.51c2.135 0 3.814.648 5.057 1.955 1.232 1.306 1.859 3.218 1.859 5.747 0 .244-.011.52-.032.818-.021.297-.043.552-.053.786h-9.646c.096.87.499 1.572 1.232 2.082.723.51 1.689.776 2.911.776.775 0 1.551-.075 2.294-.213.755-.138 1.36-.319 1.838-.531l.574 3.452c-.223.117-.531.223-.914.34a11.31 11.31 0 01-1.274.298c-.468.085-.967.159-1.498.212-.531.053-1.063.085-1.594.085-1.349 0-2.528-.202-3.527-.595-.998-.403-1.827-.945-2.485-1.636-.659-.69-1.137-1.519-1.456-2.464a9.85 9.85 0 01-.478-3.102zm9.986-1.626a4.911 4.911 0 00-.181-1.051 2.613 2.613 0 00-.488-.914 2.693 2.693 0 00-.829-.658c-.329-.17-.744-.255-1.243-.255-.478 0-.882.085-1.232.244a2.62 2.62 0 00-.861.637 3.06 3.06 0 00-.531.925c-.127.35-.212.711-.276 1.072h5.641zm19.408 1.509c0 1.158-.138 2.22-.425 3.166-.287.956-.701 1.774-1.253 2.453a5.617 5.617 0 01-2.051 1.594c-.818.382-1.763.574-2.825.574a7.431 7.431 0 01-1.658-.17 8.152 8.152 0 01-1.487-.489v5.651h-4.249v-19.78c.382-.116.818-.223 1.317-.329.5-.106 1.01-.191 1.551-.276a27.253 27.253 0 011.657-.18 21.522 21.522 0 011.615-.075c1.232 0 2.337.18 3.314.553.967.371 1.785.892 2.454 1.572.67.68 1.179 1.497 1.53 2.464.329.988.51 2.082.51 3.272zm-4.345.117c0-1.317-.297-2.358-.881-3.155-.595-.786-1.467-1.18-2.624-1.18-.383 0-.733.011-1.052.043-.319.032-.584.064-.797.096v7.68c.266.17.616.319 1.041.425.425.117.861.17 1.296.17 2.008 0 3.017-1.36 3.017-4.08zm9.933-2.285a6.278 6.278 0 011.041-.18 14.77 14.77 0 011.466-.074c.871 0 1.699.106 2.464.308.765.213 1.445.531 2.008.956a4.61 4.61 0 011.36 1.625c.329.659.499 1.424.499 2.295s-.149 1.636-.457 2.273a4.113 4.113 0 01-1.317 1.572c-.574.415-1.254.712-2.04.914-.786.202-1.668.297-2.634.297-1.254 0-2.412-.063-3.453-.18a27.48 27.48 0 01-3.197-.584V46.968h4.249v5.333h.011zm2.113 6.704c.776 0 1.392-.149 1.838-.446.446-.298.669-.776.669-1.445 0-.34-.074-.627-.223-.871a1.722 1.722 0 00-.626-.574 2.96 2.96 0 00-.924-.297 7.481 7.481 0 00-1.127-.085c-.286 0-.594.021-.945.053-.34.043-.595.074-.775.117v3.42c.233.043.531.064.913.086.383.042.776.042 1.2.042zm13.152 2.974h-4.249v-15.01h4.249v15.01z" fill="#fff"/><path d="M249.285 54.107c0 1.158-.138 2.22-.425 3.165-.286.956-.701 1.774-1.253 2.454a5.604 5.604 0 01-2.05 1.594c-.818.382-1.764.573-2.826.573a7.422 7.422 0 01-1.657-.17 8.12 8.12 0 01-1.487-.488v5.651h-4.25v-19.78a15.87 15.87 0 011.318-.329 27.166 27.166 0 013.208-.446 21.496 21.496 0 011.614-.075c1.233 0 2.338.181 3.315.553.967.372 1.785.892 2.454 1.572a6.715 6.715 0 011.529 2.465c.33.977.51 2.06.51 3.26zm-4.334.106c0-1.317-.297-2.358-.881-3.155-.585-.786-1.467-1.19-2.624-1.19-.383 0-.733.01-1.052.043-.319.032-.584.063-.797.095v7.68c.266.17.616.32 1.041.425.425.117.861.17 1.296.17 2.008.011 3.017-1.349 3.017-4.068z" fill="url(#paint0_linear)"/><path d="M232.714 59.354a2.612 2.612 0 01-2.614 2.614 2.612 2.612 0 01-2.613-2.614 2.612 2.612 0 012.613-2.613 2.612 2.612 0 012.614 2.613z" fill="#76C591"/><path d="M267.62 48.827a8.276 8.276 0 00-2.549-1.423 12.577 12.577 0 00-3.049-.659v-3.952h-4.143v3.952c-1.37.149-2.56.446-3.569.871s-1.838.967-2.486 1.625a6.402 6.402 0 00-1.445 2.242c-.318.839-.467 1.731-.467 2.687 0 .988.17 1.923.499 2.794.33.871.829 1.647 1.498 2.316.669.67 1.498 1.211 2.497 1.625.998.415 2.156.68 3.463.776v5.226h4.143v-5.226a13.111 13.111 0 003.08-.638 7.871 7.871 0 002.539-1.412c.722-.606 1.296-1.36 1.732-2.252.425-.893.637-1.955.637-3.166 0-1.2-.212-2.242-.637-3.123a6.502 6.502 0 00-1.743-2.263zm-9.741 9.242c-1.2-.138-2.114-.5-2.741-1.084-.626-.584-.945-1.508-.945-2.772 0-1.307.329-2.273.988-2.879.659-.605 1.551-.956 2.698-1.052v7.787zm7.489-2.029c-.223.5-.499.892-.86 1.18-.351.297-.744.51-1.179.636a4.313 4.313 0 01-1.317.202v-7.786a5.8 5.8 0 011.317.223c.435.138.828.35 1.179.637.351.298.637.69.86 1.19.223.5.33 1.115.33 1.86 0 .743-.117 1.37-.33 1.858z" fill="url(#paint1_linear)"/><path d="M81.157 81.567v-6.172h2.082c.488 0 .882.085 1.19.266.308.17.541.403.69.7.149.298.223.627.223.989 0 .36-.074.69-.223.988a1.686 1.686 0 01-.68.712c-.308.18-.7.265-1.179.265h-1.498v-.659h1.466c.33 0 .595-.053.797-.17a.975.975 0 00.435-.467c.085-.202.139-.414.139-.67a1.54 1.54 0 00-.139-.669.931.931 0 00-.446-.456c-.202-.106-.467-.17-.807-.17H81.89v5.513h-.733zm6.66.106a1.75 1.75 0 01-.796-.17 1.417 1.417 0 01-.574-.488 1.375 1.375 0 01-.213-.765c0-.266.053-.478.16-.648.106-.17.244-.298.414-.393.17-.096.372-.17.584-.213.213-.042.425-.085.638-.117.287-.031.51-.063.69-.085.18-.02.308-.053.383-.095.085-.043.117-.128.117-.245v-.02c0-.298-.085-.532-.245-.691-.16-.16-.404-.244-.733-.244-.34 0-.605.074-.797.223-.19.148-.329.308-.403.478l-.68-.245c.117-.276.287-.499.489-.658.201-.16.424-.266.658-.33a2.83 2.83 0 01.712-.095 3.2 3.2 0 01.51.053c.191.032.382.106.563.212.18.106.33.276.457.489.117.223.18.51.18.882v3.049h-.712v-.627h-.031a1.025 1.025 0 01-.245.318 1.557 1.557 0 01-.446.298c-.18.095-.414.127-.68.127zm.107-.637c.276 0 .52-.053.711-.17a1.12 1.12 0 00.584-.977v-.648a.503.503 0 01-.201.095 2.873 2.873 0 01-.35.075 4.74 4.74 0 01-.383.053c-.128.01-.223.032-.298.042-.18.021-.361.064-.52.117a.974.974 0 00-.383.234.608.608 0 00-.148.425c0 .244.095.435.276.563.18.127.425.191.712.191zm3.027-.648h.754c.022.212.106.372.287.478.17.106.404.16.68.16.287 0 .531-.064.733-.181.202-.117.308-.308.308-.574a.717.717 0 00-.436-.67 1.144 1.144 0 00-.488-.095h-.797v-.637h.797c.287 0 .488-.064.626-.191a.619.619 0 00.202-.478.631.631 0 00-.223-.5c-.148-.127-.35-.19-.627-.19-.276 0-.499.063-.68.18a.58.58 0 00-.286.467h-.744c.01-.244.085-.467.234-.658.149-.192.34-.34.595-.457.244-.106.53-.17.86-.17.33 0 .606.053.85.17.244.117.425.265.563.457.138.19.202.414.202.658a.915.915 0 01-.223.638c-.149.17-.33.276-.553.34v.042c.181.01.33.064.457.17a1.12 1.12 0 01.415.924c0 .276-.075.531-.223.733a1.388 1.388 0 01-.617.478c-.265.117-.563.17-.903.17a2.33 2.33 0 01-.881-.16 1.493 1.493 0 01-.616-.445c-.181-.181-.255-.404-.266-.659zm4.483 1.179v-4.631h1.89c.5 0 .893.116 1.19.34.298.223.436.52.436.892 0 .276-.085.499-.255.648-.17.148-.382.255-.637.308a1.291 1.291 0 01.903.574c.106.17.159.371.159.616 0 .233-.064.446-.18.637-.117.191-.298.33-.521.446-.223.117-.489.16-.807.16h-2.178v.01zm.68-2.688h1.221c.192 0 .35-.031.489-.085a.66.66 0 00.319-.233.593.593 0 00.106-.35.53.53 0 00-.244-.458c-.16-.106-.383-.17-.67-.17h-1.221v1.296zm0 2.04h1.508c.245 0 .436-.053.574-.17a.597.597 0 00.212-.478c0-.244-.074-.425-.212-.563-.138-.138-.33-.202-.574-.202h-1.508v1.413zm4.801-.403l2.231-3.58h.818v4.631h-.712v-3.58l-2.22 3.58h-.828v-4.631h.711v3.58zm4.345 1.051v-4.631h1.891c.499 0 .892.116 1.19.34.297.223.435.52.435.892 0 .276-.085.499-.255.648-.17.148-.382.255-.637.308a1.287 1.287 0 01.903.574c.106.17.159.371.159.616a1.2 1.2 0 01-.18.637c-.117.191-.298.33-.521.446-.223.117-.489.16-.807.16h-2.178v.01zm.68-2.688h1.222c.191 0 .35-.031.488-.085a.66.66 0 00.319-.233.595.595 0 00.106-.35.53.53 0 00-.244-.458c-.16-.106-.383-.17-.669-.17h-1.222v1.296zm0 2.04h1.508c.245 0 .436-.053.574-.17a.598.598 0 00.213-.478c0-.244-.075-.425-.213-.563-.138-.138-.329-.202-.574-.202h-1.508v1.413zm5.449.754a1.75 1.75 0 01-.796-.17 1.418 1.418 0 01-.574-.488 1.376 1.376 0 01-.212-.765c0-.266.053-.478.159-.648.106-.17.244-.298.414-.393.17-.096.372-.17.585-.213.212-.042.424-.085.637-.117.287-.031.51-.063.69-.085.181-.02.308-.053.383-.095.085-.043.117-.128.117-.245v-.02c0-.298-.085-.532-.245-.691-.159-.16-.403-.244-.733-.244-.34 0-.605.074-.796.223-.191.148-.33.308-.404.478l-.68-.245c.117-.276.287-.499.489-.658a1.83 1.83 0 01.658-.33 2.8 2.8 0 01.712-.095c.149 0 .319.021.51.053s.382.106.563.212c.181.106.329.276.457.489.117.223.18.51.18.882v3.049h-.711v-.627h-.032a1.033 1.033 0 01-.245.318 1.538 1.538 0 01-.446.298c-.18.095-.414.127-.68.127zm.107-.637c.276 0 .52-.053.711-.17a1.117 1.117 0 00.585-.977v-.648a.506.506 0 01-.202.095 2.853 2.853 0 01-.351.075 4.724 4.724 0 01-.382.053c-.128.01-.223.032-.298.042-.18.021-.361.064-.52.117a.983.983 0 00-.383.234.61.61 0 00-.148.425c0 .244.095.435.276.563.181.127.435.191.712.191zm3.696-4.1v4.631h-.711v-4.631h.711zm1.838 2.028v.67h-2.443v-.67h2.443zm1.424 2.699c-.415 0-.786-.096-1.094-.298a2.007 2.007 0 01-.733-.839c-.181-.361-.266-.775-.266-1.254 0-.478.085-.903.266-1.264.18-.36.424-.637.733-.839.308-.202.679-.297 1.094-.297.414 0 .786.095 1.094.297.318.202.563.478.733.84.18.36.265.775.265 1.263 0 .479-.085.893-.265 1.254a2.101 2.101 0 01-.733.84c-.308.201-.669.297-1.094.297zm0-.638c.318 0 .573-.085.786-.244.202-.16.361-.383.457-.638.095-.265.148-.552.148-.86 0-.308-.053-.595-.148-.86a1.444 1.444 0 00-.457-.648c-.202-.17-.468-.245-.786-.245a1.26 1.26 0 00-.786.245 1.433 1.433 0 00-.457.648 2.515 2.515 0 00-.149.86c0 .308.053.595.149.86.095.266.255.479.457.638.212.16.467.244.786.244zm3.261-4.089h.712v3.972h1.753v-3.972h.711v3.972h1.753v-3.972h.712v4.631h-5.63v-4.631h-.011zm6.321 3.972l-.085 1.987h-.733v-1.328h-.606v-.658h1.424zm1.742-.392l2.231-3.58h.817v4.631h-.711v-3.58l-2.22 3.58h-.829v-4.631h.712v3.58zm6.299 1.147c-.446 0-.828-.096-1.147-.298a2.006 2.006 0 01-.744-.828 2.888 2.888 0 01-.265-1.243c0-.468.085-.893.265-1.254.17-.36.415-.648.733-.85a1.97 1.97 0 011.094-.308c.245 0 .478.043.712.117.234.085.446.213.637.393.192.18.351.415.457.712.117.297.17.659.17 1.094v.298h-3.569v-.617h2.847a1.48 1.48 0 00-.159-.7 1.3 1.3 0 00-.436-.49 1.26 1.26 0 00-.669-.18 1.27 1.27 0 00-.733.213 1.473 1.473 0 00-.478.541 1.64 1.64 0 00-.17.712v.414c0 .35.064.648.18.882.117.244.287.425.51.552.223.128.468.192.754.192.192 0 .362-.032.51-.085.149-.054.287-.138.393-.245a1.17 1.17 0 00.255-.403l.691.19a1.582 1.582 0 01-.361.617c-.17.18-.383.308-.638.414-.255.106-.531.16-.839.16zm6.098-1.147l2.23-3.58h.818v4.631h-.711v-3.58l-2.221 3.58h-.828v-4.631h.712v3.58zm7.213-3.58v.669h-2.146v3.962h-.712v-4.631h2.858zm1.041 6.374v-6.364h.69v.733h.085c.053-.085.128-.18.223-.308a1.32 1.32 0 01.404-.34c.18-.096.414-.149.712-.149.393 0 .733.096 1.03.298.297.191.531.467.701.828.17.362.255.776.255 1.264 0 .49-.085.914-.255 1.275-.17.361-.404.638-.69.829a1.855 1.855 0 01-1.02.297c-.298 0-.531-.053-.712-.148a1.227 1.227 0 01-.414-.34 4.606 4.606 0 01-.223-.319h-.064v2.443h-.722zm.69-4.059c0 .35.053.659.149.924.096.266.255.478.446.627.202.149.436.223.722.223.298 0 .542-.074.744-.234a1.49 1.49 0 00.457-.637 2.63 2.63 0 00.149-.892c0-.33-.054-.616-.149-.882a1.444 1.444 0 00-.446-.627c-.202-.159-.447-.233-.755-.233-.286 0-.531.074-.733.223a1.3 1.3 0 00-.446.605 2.617 2.617 0 00-.138.903zm4.77 4.037a1.43 1.43 0 01-.51-.085l.18-.627c.255.064.479.064.648 0 .17-.074.319-.276.447-.626l.138-.362-1.71-4.652h.775l1.275 3.686h.053l1.275-3.686.775.01-1.976 5.29a1.92 1.92 0 01-.329.584 1.323 1.323 0 01-.457.351 1.338 1.338 0 01-.584.117zm4.27-6.352h.712v3.972h1.753v-3.972h.712v3.972h1.752v-3.972h.712v4.631h-5.63v-4.631h-.011zm6.937 4.631v-4.631h.712v2.018h.467l1.668-2.018h.913l-1.869 2.23 1.891 2.401h-.914l-1.519-1.955h-.637v1.955h-.712zm5.269-1.051l2.231-3.58h.818v4.631h-.712v-3.58l-2.22 3.58h-.829v-4.631h.712v3.58zm6.246.393h.383c.095-.096.18-.202.244-.32a2.83 2.83 0 00.181-.403c.053-.16.095-.35.127-.574.032-.223.064-.499.096-.828l.159-1.838h2.943v3.973h.711v1.987h-.711v-1.328h-3.421v1.328h-.712v-1.998zm1.19 0h2.231v-3.304h-1.572l-.117 1.168c-.053.489-.117.903-.191 1.275-.064.35-.181.637-.351.86zm4.185.658v-.658h.17a.716.716 0 00.351-.086c.096-.053.17-.148.223-.297.053-.149.106-.34.138-.584.032-.244.053-.574.064-.956l.085-2.05h3.091v4.631h-.712v-3.962h-1.699l-.075 1.646a7.99 7.99 0 01-.106.999 2.38 2.38 0 01-.234.722c-.106.191-.244.34-.414.446-.17.107-.382.15-.637.15h-.245zm5.11 0l1.317-2.305h.776l-1.317 2.305h-.776zm3.091 0v-3.983h-1.232c-.276 0-.499.063-.659.19-.159.128-.233.309-.233.532a.67.67 0 00.212.52c.138.128.34.192.595.192h1.498v.669h-1.498c-.308 0-.584-.053-.807-.17a1.14 1.14 0 01-.521-.478c-.127-.202-.18-.446-.18-.733s.063-.531.191-.733c.127-.202.308-.361.552-.478.245-.106.531-.17.861-.17h1.901v4.632h-.68v.01zm3.867-.658h.382c.096-.096.181-.202.245-.32.064-.116.127-.254.18-.403.053-.16.096-.35.128-.574.032-.223.064-.499.096-.828l.159-1.838h2.942v3.973h.712v1.987h-.712v-1.328h-3.42v1.328h-.712v-1.998zm1.2 0h2.231v-3.304h-1.572l-.117 1.168c-.053.489-.117.903-.191 1.275-.074.35-.191.637-.351.86zm6.534.754c-.447 0-.829-.096-1.148-.298a2.01 2.01 0 01-.743-.828 2.888 2.888 0 01-.266-1.243c0-.468.085-.893.266-1.254.17-.36.414-.648.733-.85a1.97 1.97 0 011.094-.308c.244 0 .478.043.711.117a1.803 1.803 0 011.095 1.105c.117.297.17.659.17 1.094v.298h-3.57v-.617h2.847a1.48 1.48 0 00-.159-.7 1.292 1.292 0 00-.436-.49 1.26 1.26 0 00-.669-.18 1.27 1.27 0 00-.733.213 1.473 1.473 0 00-.478.541 1.64 1.64 0 00-.17.712v.414c0 .35.064.648.181.882.117.244.287.425.51.552.223.128.467.192.754.192.191 0 .361-.032.51-.085.148-.054.287-.138.393-.245a1.2 1.2 0 00.255-.403l.69.19a1.57 1.57 0 01-.361.617 1.79 1.79 0 01-.637.414c-.255.106-.521.16-.839.16zm2.57-4.058v-.67h3.761v.67H208.6v3.962h-.712v-3.962h-1.53zm6.502 4.058c-.447 0-.829-.096-1.148-.298a2.003 2.003 0 01-.743-.828 2.888 2.888 0 01-.266-1.243c0-.468.085-.893.266-1.254.17-.36.414-.648.733-.85a1.968 1.968 0 011.094-.308c.244 0 .478.043.711.117a1.803 1.803 0 011.095 1.105c.117.297.17.659.17 1.094v.298h-3.57v-.617h2.847a1.48 1.48 0 00-.159-.7 1.292 1.292 0 00-.436-.49 1.26 1.26 0 00-.669-.18 1.27 1.27 0 00-.733.213 1.473 1.473 0 00-.478.541 1.64 1.64 0 00-.17.712v.414c0 .35.064.648.181.882.117.244.286.425.51.552.223.128.467.192.754.192.191 0 .361-.032.51-.085.148-.054.287-.138.393-.245a1.2 1.2 0 00.255-.403l.69.19a1.57 1.57 0 01-.361.617 1.79 1.79 0 01-.637.414c-.255.106-.531.16-.839.16zm3.707-1.147l2.231-3.58h.818v4.631h-.712v-3.58l-2.22 3.58h-.829v-4.631h.712v3.58zm1.763-5.12h.659c0 .329-.117.594-.34.796-.223.202-.531.308-.914.308-.382 0-.679-.106-.903-.308a1.06 1.06 0 01-.34-.797h.659c0 .16.043.298.128.415.085.116.233.18.446.18.212 0 .361-.064.457-.18a.587.587 0 00.148-.415zm5.694 5.12l2.231-3.58h.818v4.631h-.712v-3.58l-2.22 3.58h-.829v-4.631h.712v3.58zm6.746 1.051v-4.631h1.891c.499 0 .892.116 1.189.34.298.223.436.52.436.892 0 .276-.085.499-.255.648-.17.148-.383.255-.637.308a1.293 1.293 0 01.902.574c.107.17.16.371.16.616 0 .233-.064.446-.181.637-.117.191-.297.33-.52.446-.223.117-.489.16-.808.16h-2.177v.01zm.669-2.688h1.222c.191 0 .35-.031.488-.085a.66.66 0 00.319-.233.595.595 0 00.106-.35.53.53 0 00-.244-.458c-.159-.106-.383-.17-.669-.17h-1.222v1.296zm0 2.04h1.508c.245 0 .436-.053.574-.17a.598.598 0 00.213-.478c0-.244-.075-.425-.213-.563-.138-.138-.329-.202-.574-.202h-1.508v1.413zm3.803-.531h.754c.021.212.106.372.287.478.17.106.404.16.68.16.287 0 .531-.064.733-.181.202-.117.308-.308.308-.574a.717.717 0 00-.436-.67 1.142 1.142 0 00-.488-.095h-.797v-.637h.797c.286 0 .488-.064.627-.191a.618.618 0 00.201-.478.63.63 0 00-.223-.5c-.148-.127-.35-.19-.627-.19-.276 0-.499.063-.679.18a.577.577 0 00-.287.467h-.744a1.13 1.13 0 01.234-.658c.149-.192.34-.34.595-.457a2.14 2.14 0 01.86-.17c.33 0 .606.053.85.17.244.117.425.265.563.457a1.1 1.1 0 01.202.658.913.913 0 01-.223.638 1.11 1.11 0 01-.553.34v.042a.75.75 0 01.457.17 1.119 1.119 0 01.415.924c0 .276-.075.531-.224.733a1.383 1.383 0 01-.616.478c-.265.117-.563.17-.903.17-.329 0-.616-.053-.881-.16a1.498 1.498 0 01-.617-.445.9.9 0 01-.265-.659zm4.483 2.922v-6.364h.69v.733h.085c.053-.085.128-.18.223-.308a1.32 1.32 0 01.404-.34c.181-.096.414-.149.712-.149.393 0 .733.096 1.03.298.298.191.531.467.701.828.17.362.255.776.255 1.264 0 .49-.085.914-.255 1.275-.17.361-.403.638-.69.829a1.855 1.855 0 01-1.02.297c-.297 0-.531-.053-.712-.148a1.237 1.237 0 01-.414-.34 4.606 4.606 0 01-.223-.319h-.064v2.443h-.722zm.701-4.059c0 .35.053.659.149.924.095.266.255.478.446.627.202.149.435.223.722.223.298 0 .542-.074.744-.234.202-.159.35-.371.457-.637.095-.265.148-.563.148-.892 0-.33-.053-.616-.148-.882a1.438 1.438 0 00-.447-.627c-.201-.159-.446-.233-.754-.233a1.2 1.2 0 00-.733.223c-.202.148-.35.35-.446.605a2.594 2.594 0 00-.138.903zm6.352 2.412c-.414 0-.786-.096-1.094-.298a2.021 2.021 0 01-.733-.839c-.18-.361-.265-.775-.265-1.254 0-.478.085-.903.265-1.264a2.1 2.1 0 01.733-.839c.308-.202.68-.297 1.094-.297.415 0 .787.095 1.095.297.308.202.563.478.733.84.18.36.265.775.265 1.263 0 .479-.085.893-.265 1.254a2.101 2.101 0 01-.733.84c-.308.201-.68.297-1.095.297zm0-.638c.319 0 .574-.085.786-.244.202-.16.351-.383.457-.638a2.51 2.51 0 00.149-.86 2.51 2.51 0 00-.149-.86 1.437 1.437 0 00-.457-.648c-.201-.17-.467-.245-.786-.245a1.26 1.26 0 00-.786.245c-.202.159-.35.382-.456.648a2.515 2.515 0 00-.149.86c0 .308.053.595.149.86a1.4 1.4 0 00.456.638c.202.16.468.244.786.244zm5.068.638c-.436 0-.808-.107-1.126-.308a2.023 2.023 0 01-.723-.85 2.872 2.872 0 01-.255-1.233c0-.467.085-.881.266-1.242.17-.362.414-.648.733-.85a1.97 1.97 0 011.094-.308c.329 0 .616.064.882.18.265.117.478.287.637.51.159.223.266.468.308.754h-.712a1.056 1.056 0 00-.361-.563c-.191-.159-.435-.244-.754-.244a1.32 1.32 0 00-.733.213 1.46 1.46 0 00-.489.605c-.117.266-.17.563-.17.914 0 .36.053.669.17.934.117.266.277.468.478.617.213.148.457.223.733.223a1.122 1.122 0 00.882-.372.997.997 0 00.223-.436h.712a1.6 1.6 0 01-.298.733 1.59 1.59 0 01-.626.52c-.234.139-.532.203-.871.203zm2.443-.096v-.658h.17a.71.71 0 00.35-.086c.096-.053.17-.148.223-.297.054-.149.107-.34.139-.584.031-.244.053-.574.063-.956l.085-2.05h3.092v4.631h-.712v-3.962h-1.7l-.074 1.646a7.975 7.975 0 01-.107.999 2.408 2.408 0 01-.233.722c-.106.191-.245.34-.414.446-.17.107-.383.15-.638.15h-.244zm6.034-2.953h1.327c.542 0 .957.138 1.243.414.287.276.436.627.436 1.052 0 .276-.064.531-.191.754a1.463 1.463 0 01-.563.542c-.255.138-.553.202-.914.202h-1.944v-4.632h.712v3.973h1.232c.276 0 .51-.074.691-.223a.706.706 0 00.265-.574.733.733 0 00-.265-.594c-.181-.16-.415-.234-.691-.234h-1.328v-.68h-.01zm3.739 2.953v-4.631h.712v4.631h-.712zm2.539-4.631l1.105 1.89 1.104-1.89h.818l-1.498 2.315 1.498 2.316h-.818l-1.104-1.795-1.105 1.795h-.818l1.466-2.316-1.466-2.316h.818z" fill="#fff"/><path d="M53.314 35.836c-9.88-.404-17.58-8.764-17.177-18.644C36.54 7.313 44.9-.388 54.78.015 64.66.42 72.36 8.78 71.957 18.658c-.403 9.869-8.764 17.581-18.643 17.178zm1.04-25.549c-4.206-.17-7.775 3.113-7.945 7.32-.17 4.206 3.113 7.776 7.32 7.946 4.206.17 7.775-3.113 7.945-7.32.18-4.206-3.112-7.765-7.32-7.946z" fill="url(#paint2_linear)"/><path d="M7.466 25.85l-6.332 9.996c-2.985 4.706.255 10.867 5.822 11.101l11.823.489c5.567.223 9.295-5.652 6.703-10.591L19.99 26.37c-2.592-4.94-9.54-5.227-12.524-.521zm49.184-7.818a2.604 2.604 0 01-2.72 2.496 2.604 2.604 0 01-2.496-2.72 2.602 2.602 0 012.709-2.496c1.434.064 2.57 1.275 2.507 2.72z" fill="#76C591"/><path d="M26.842 87.537L9.304 68.501c-3.4-3.686-3.166-9.433.52-12.822L28.86 38.141c3.687-3.4 9.434-3.166 12.822.52l17.539 19.037c3.4 3.686 3.165 9.433-.52 12.822L39.663 88.058c-3.686 3.4-9.433 3.166-12.822-.52zM18.96 63.806l13.342 14.479a1.883 1.883 0 002.667.106L49.448 65.05a1.883 1.883 0 00.106-2.667L36.21 47.903a1.883 1.883 0 00-2.666-.106L19.066 61.14a1.883 1.883 0 00-.106 2.666z" fill="url(#paint3_linear)"/><path d="M54.047 17.925l-19.79 45.169" stroke="#76C591" stroke-width="1.467" stroke-miterlimit="10"/><path d="M34.256 65.58a2.486 2.486 0 100-4.972 2.486 2.486 0 000 4.972z" fill="#82C2EB"/><defs><linearGradient id="paint0_linear" x1="242.309" y1="23.379" x2="242.309" y2="52.84" gradientUnits="userSpaceOnUse"><stop offset="0" stop-color="#FEEB8A"/><stop offset=".268" stop-color="#F8C3A8"/><stop offset=".539" stop-color="#F59BB6"/><stop offset=".684" stop-color="#F497B5"/><stop offset=".864" stop-color="#F28BB1"/><stop offset=".999" stop-color="#EF7FAD"/></linearGradient><linearGradient id="paint1_linear" x1="259.957" y1="23.379" x2="259.957" y2="52.84" gradientUnits="userSpaceOnUse"><stop offset="0" stop-color="#FEEB8A"/><stop offset=".268" stop-color="#F8C3A8"/><stop offset=".539" stop-color="#F59BB6"/><stop offset=".684" stop-color="#F497B5"/><stop offset=".864" stop-color="#F28BB1"/><stop offset=".999" stop-color="#EF7FAD"/></linearGradient><linearGradient id="paint2_linear" x1="36.231" y1="23.203" x2="70.663" y2="13.208" gradientUnits="userSpaceOnUse"><stop stop-color="#B1DCF5"/><stop offset=".999" stop-color="#82C2EB"/></linearGradient><linearGradient id="paint3_linear" x1="40.68" y1="88.859" x2="23.116" y2="18.457" gradientUnits="userSpaceOnUse"><stop offset="0" stop-color="#FEEB8A"/><stop offset=".268" stop-color="#F8C3A8"/><stop offset=".539" stop-color="#F59BB6"/><stop offset=".684" stop-color="#F497B5"/><stop offset=".864" stop-color="#F28BB1"/><stop offset=".999" stop-color="#EF7FAD"/></linearGradient></defs></svg>