<svg width="15" height="16" fill="none" xmlns="http://www.w3.org/2000/svg"><path opacity=".3" d="M12.808 0H2.125C.92 0 0 .985 0 2.277v11.446C0 15.015.919 16 2.125 16h10.683c1.206 0 2.125-.985 2.125-2.277V2.277C14.933.985 14.014 0 12.808 0zM7.467 12.8c2.47 0 4.48-2.092 4.48-4.615 0-.431-.058-.923-.173-1.293h1.264v6.523c0 .308-.23.616-.574.616H2.47a.596.596 0 01-.575-.616V6.831h1.321c-.114.43-.172.861-.172 1.292-.057 2.585 1.953 4.677 4.423 4.677zm0-1.846c-1.609 0-2.872-1.354-2.872-3.016 0-1.661 1.263-3.015 2.872-3.015 1.608 0 2.872 1.354 2.872 3.015 0 1.724-1.264 3.016-2.872 3.016zm5.513-6.585c0 .37-.287.677-.631.677H10.74c-.345 0-.632-.308-.632-.677V2.708c0-.37.287-.677.632-.677h1.608c.344 0 .631.307.631.677v1.661z" fill="#fff"/></svg>