<svg width="20" height="16" fill="none" xmlns="http://www.w3.org/2000/svg"><path d="M15.313 16H4.687C2.103 16 0 13.868 0 11.248V4.752C0 2.132 2.103 0 4.688 0h10.625C17.896 0 20 2.132 20 4.752v6.496C20 13.867 17.897 16 15.312 16zM4.687 1.584c-1.723 0-3.125 1.421-3.125 3.168v6.496c0 1.747 1.402 3.168 3.125 3.168h10.625c1.724 0 3.126-1.421 3.126-3.168V4.752c0-1.747-1.402-3.168-3.125-3.168H4.687zm8.176 7.818l3.861-2.99a.8.8 0 00.147-1.11.774.774 0 00-1.095-.15l-3.861 2.991a3.099 3.099 0 01-3.788.002L4.386 5.196a.774.774 0 00-1.097.14.8.8 0 00.138 1.111L7.17 9.398a4.64 4.64 0 002.848.975 4.641 4.641 0 002.844-.97z" fill="#F07FAE"/></svg>