<svg width="20" height="20" fill="none" xmlns="http://www.w3.org/2000/svg"><path d="M12.928 20C4.908 19.94-4.488 8.264 2.378 1.398c.243-.248.502-.486.767-.709a2.923 2.923 0 012-.683 2.9 2.9 0 011.95.86L8.416 2.24c1.431 1.4.924 3.923-.942 4.653-.578.235-.946.444-1.045.515-.728.741-1.192 1.946 1.532 4.673.884.884 2.193 2.06 3.353 2.06.47 0 .901-.198 1.318-.607.054-.08.242-.398.483-1 .723-1.877 3.254-2.399 4.66-.959l1.358 1.314.01.01a2.911 2.911 0 01.174 3.93c-.208.248-.43.49-.659.72C17.042 19.168 15.083 20 12.928 20zM5.027 1.564c-.31 0-.62.107-.877.322a9.2 9.2 0 00-.658.607c-3.66 3.715-1.649 8.789 1.868 12.262 3.485 3.465 8.538 5.36 12.193 1.69a9.41 9.41 0 00.564-.617 1.348 1.348 0 00-.076-1.822l-1.357-1.313-.01-.009a1.267 1.267 0 00-1.168-.352 1.27 1.27 0 00-.939.784c-.11.272-.49 1.184-.805 1.499-.721.722-1.545 1.088-2.447 1.088-1.721 0-3.287-1.346-4.46-2.519-1.777-1.704-3.833-4.611-1.512-6.9.329-.328 1.263-.724 1.541-.838.405-.164.687-.505.774-.935a1.276 1.276 0 00-.363-1.183L5.973 1.956a1.34 1.34 0 00-.946-.392zm14.19 7.774a.782.782 0 01-.777-.711 7.799 7.799 0 00-7.074-7.068.781.781 0 11.14-1.556c4.397.329 8.162 4.091 8.49 8.484a.781.781 0 01-.779.85zm-6.09-.001a.78.78 0 00.494-.989 3.161 3.161 0 00-1.924-1.973.782.782 0 00-.521 1.473c.447.158.807.53.962.995a.782.782 0 00.989.494zm3.071-.007a.781.781 0 00.663-.884 6.295 6.295 0 00-5.314-5.31c-1.032-.106-1.242 1.359-.222 1.547a4.724 4.724 0 013.989 3.984.782.782 0 00.884.663z" fill="#F07FAE"/></svg>