<svg width="159" height="29" fill="none" xmlns="http://www.w3.org/2000/svg"><path d="M34.865 8.535h-7.481c.436 2.47 2.833 4.794 5.447 4.794h5.957c.072-.218.072-.581.072-.8 0-2.178-1.816-3.994-3.995-3.994z" fill="url(#paint0_linear)"/><path d="M28.038 13.765v6.028h3.631v-3.196h3.196c1.744 0 3.269-1.234 3.777-2.832H28.038zm-12.785-5.23V19.72h3.196s.8 0 1.235-.8a1074.09 1074.09 0 002.833-5.592h.436v6.392h3.632V8.535h-3.196s-.8.072-1.235.799c-1.816 3.704-2.833 5.593-2.833 5.593h-.436V8.535h-3.632zM0 19.794V8.608h3.632s1.017 0 1.598 1.598C6.683 14.419 6.828 15 6.828 15s.29-1.017 1.598-4.794c.58-1.598 1.598-1.598 1.598-1.598h3.632v11.186h-3.632v-6.03h-.436l-2.034 6.03H5.956l-2.034-6.03h-.435v6.03H0z" fill="#4FAD50"/><path d="M97.695 14.164c0 7.772-6.32 14.164-14.164 14.164-7.772 0-14.164-6.392-14.164-14.164C69.367 6.392 75.687 0 83.46 0c7.917 0 14.236 6.392 14.236 14.164z" fill="#F9B50B"/><path d="M78.737 14.237c0-1.017-.145-2.034-.29-2.978H69.73c.073-.509.218-.944.364-1.526h7.772c-.146-.508-.364-1.016-.581-1.525h-6.61c.218-.508.508-.944.799-1.525h5.012a9.918 9.918 0 00-1.09-1.526h-2.76c.436-.508.871-.944 1.453-1.452C71.619 1.38 68.278 0 64.573 0c-7.7.218-14.091 6.392-14.091 14.164 0 7.772 6.32 14.164 14.164 14.164 3.704 0 6.973-1.453 9.515-3.704.509-.436.945-.944 1.453-1.525h-2.906a10.386 10.386 0 01-1.016-1.453h4.939a7.52 7.52 0 00.799-1.526h-6.61a7.432 7.432 0 01-.581-1.525h7.772c.436-1.307.726-2.76.726-4.358z" fill="#C8191C"/><path d="M69.658 17.796l.218-1.308c-.073 0-.218.073-.364.073-.508 0-.58-.29-.508-.436l.436-2.615h.799l.218-1.452h-.727l.145-.872H68.35s-.871 4.94-.871 5.52c0 .872.508 1.308 1.234 1.308.436 0 .8-.145.945-.218zm.508-2.397c0 2.106 1.453 2.615 2.615 2.615 1.09 0 1.598-.218 1.598-.218l.29-1.453s-.798.363-1.597.363c-1.67 0-1.38-1.234-1.38-1.234h3.05s.218-.945.218-1.38c0-.945-.508-2.18-2.179-2.18-1.452-.072-2.615 1.598-2.615 3.487zm2.615-2.18c.8 0 .654.945.654 1.018h-1.67c.072-.073.217-1.017 1.016-1.017zm9.515 4.577l.291-1.67s-.726.362-1.307.362c-1.017 0-1.526-.799-1.526-1.743 0-1.816.872-2.76 1.961-2.76.727 0 1.38.436 1.38.436l.218-1.598s-.871-.364-1.743-.364c-1.743 0-3.414 1.526-3.414 4.359 0 1.888.872 3.123 2.688 3.123.654.073 1.453-.145 1.453-.145zM61.45 11.84c-1.017 0-1.816.29-1.816.29l-.218 1.308s.654-.291 1.67-.291c.51 0 .945.073.945.508 0 .291-.073.364-.073.364h-.653c-1.308 0-2.688.508-2.688 2.251 0 1.38.872 1.671 1.453 1.671 1.017 0 1.525-.654 1.598-.654l-.073.581h1.235l.581-4.14c0-1.816-1.453-1.888-1.961-1.888zm.29 3.34c0 .219-.145 1.454-1.016 1.454-.436 0-.581-.364-.581-.582 0-.363.217-.871 1.38-.871h.217zm3.124 2.761c.363 0 2.251.073 2.251-1.96 0-1.89-1.815-1.526-1.815-2.252 0-.364.29-.509.799-.509.218 0 1.016.073 1.016.073l.218-1.38s-.508-.146-1.452-.146c-1.09 0-2.252.436-2.252 1.962 0 1.743 1.889 1.598 1.889 2.251 0 .436-.509.509-.872.509-.654 0-1.38-.218-1.38-.218l-.218 1.38c.145.145.58.29 1.816.29zm29.926-7.263l-.29 2.033s-.582-.726-1.453-.726c-1.38 0-2.543 1.67-2.543 3.632 0 1.235.581 2.47 1.889 2.47.872 0 1.453-.581 1.453-.581l-.073.508h1.525l1.09-7.191-1.598-.145zm-.726 3.922c0 .8-.364 1.889-1.235 1.889-.509 0-.8-.436-.8-1.235 0-1.235.51-1.961 1.236-1.961.508.072.799.435.799 1.307zm-40.822 3.269l.871-5.375.146 5.375h1.017l1.96-5.375-.798 5.375h1.598l1.235-7.191H56.8l-1.525 4.43-.073-4.43h-2.18l-1.234 7.19h1.453z" fill="#fff"/><path d="M76.486 17.868c.435-2.47.508-4.503 1.598-4.14.145-.944.363-1.38.508-1.743h-.29c-.654 0-1.235.872-1.235.872l.145-.8h-1.453l-.944 5.811h1.67zm9.297-6.028c-1.017 0-1.816.29-1.816.29l-.218 1.308s.654-.291 1.671-.291c.508 0 .944.073.944.508 0 .291-.072.364-.072.364h-.654c-1.308 0-2.688.508-2.688 2.251 0 1.38.872 1.671 1.453 1.671 1.017 0 1.525-.654 1.598-.654l-.073.581h1.38l.582-4.14c0-1.816-1.598-1.888-2.107-1.888zm.363 3.34c0 .219-.145 1.454-1.017 1.454-.435 0-.58-.364-.58-.582 0-.363.217-.871 1.38-.871h.217zm2.906 2.688c.435-2.47.508-4.503 1.597-4.14.146-.944.364-1.38.509-1.743h-.29c-.654 0-1.235.872-1.235.872l.145-.8h-1.453l-.944 5.811h1.67z" fill="#fff"/><path d="M155.659 6.755h-3.123c-.945 0-1.671.29-2.107 1.235l-5.956 13.583h4.213s.726-1.816.872-2.252h5.157c.145.509.508 2.18.508 2.18H159l-3.341-14.746zm-4.939 9.515c.363-.871 1.598-4.14 1.598-4.14 0 .073.363-.871.508-1.38l.291 1.307s.799 3.56.944 4.286h-3.341v-.073zm-5.957.436c0 3.051-2.76 5.085-7.045 5.085-1.816 0-3.559-.363-4.504-.8l.581-3.34.509.218c1.307.58 2.179.799 3.777.799 1.162 0 2.397-.436 2.397-1.453 0-.654-.509-1.09-2.106-1.816-1.526-.726-3.56-1.889-3.56-3.995 0-2.905 2.833-4.867 6.828-4.867 1.525 0 2.833.29 3.632.654l-.581 3.196-.291-.29c-.726-.291-1.67-.582-3.05-.582-1.526.073-2.252.727-2.252 1.308 0 .654.871 1.162 2.252 1.816 2.324 1.09 3.413 2.324 3.413 4.067z" fill="#3362AB"/><path d="M109.317 6.9l.073-.29h6.246c.872 0 1.526.29 1.744 1.235l1.38 6.537c-1.38-3.486-4.576-6.319-9.443-7.481z" fill="#F9B50B"/><path d="M127.549 6.755L121.23 21.5h-4.286l-3.632-12.348c2.615 1.67 4.794 4.286 5.593 6.102l.436 1.525 3.922-10.096h4.286v.072zm1.671-.072h3.994L130.672 21.5h-3.995l2.543-14.817z" fill="#3362AB"/><defs><linearGradient id="paint0_linear" x1="27.371" y1="10.966" x2="38.834" y2="10.966" gradientUnits="userSpaceOnUse"><stop stop-color="#27B1E6"/><stop offset="1" stop-color="#148ACA"/></linearGradient></defs></svg>